<?xml version="1.0" encoding="UTF-8" standalone="no"?>
<svg
   xmlns:dc="http://purl.org/dc/elements/1.1/"
   xmlns:cc="http://creativecommons.org/ns#"
   xmlns:rdf="http://www.w3.org/1999/02/22-rdf-syntax-ns#"
   xmlns:svg="http://www.w3.org/2000/svg"
   xmlns="http://www.w3.org/2000/svg"
   xmlns:sodipodi="http://sodipodi.sourceforge.net/DTD/sodipodi-0.dtd"
   xmlns:inkscape="http://www.inkscape.org/namespaces/inkscape"
   version="1.1"
   viewBox="0 0 100 100"
   x="0px"
   y="0px"
   id="svg2"
   inkscape:version="0.91 r13725"
   sodipodi:docname="cunning.svg"
   width="100"
   height="100">
  <metadata
     id="metadata20">
    <rdf:RDF>
      <cc:Work
         rdf:about="">
        <dc:format>image/svg+xml</dc:format>
        <dc:type
           rdf:resource="http://purl.org/dc/dcmitype/StillImage" />
        <dc:title></dc:title>
      </cc:Work>
    </rdf:RDF>
  </metadata>
  <defs
     id="defs18" />
  <sodipodi:namedview
     pagecolor="#ffffff"
     bordercolor="#666666"
     borderopacity="1"
     objecttolerance="10"
     gridtolerance="10"
     guidetolerance="10"
     inkscape:pageopacity="0"
     inkscape:pageshadow="2"
     inkscape:window-width="1280"
     inkscape:window-height="660"
     id="namedview16"
     showgrid="false"
     inkscape:zoom="1.9666667"
     inkscape:cx="-28.016948"
     inkscape:cy="60"
     inkscape:window-x="-8"
     inkscape:window-y="-8"
     inkscape:window-maximized="1"
     inkscape:current-layer="svg2" />
  <g
     id="g4136"
     transform="translate(0.87554166,-1.7887457)">
    <path
       style="fill:#000000"
       inkscape:connector-curvature="0"
       id="path4"
       d="m 31.304949,42.814305 c -0.592,0 -1.152,0.096 -1.644,0.3 0,3.624 5.82,7.976 9.852,7.976 0.592,0 1.152,-0.096 1.644,-0.3 0,-3.62 -5.82,-7.976 -9.852,-7.976 z" />
    <path
       style="fill:#000000"
       inkscape:connector-curvature="0"
       id="path6"
       d="m 51.592949,81.078305 c 0,1.409 -1.143,2.552 -2.552,2.552 -1.409,0 -2.552,-1.143 -2.552,-2.552 0,-1.409 1.143,-2.552 2.552,-2.552 1.409,0 2.552,1.143 2.552,2.552 z" />
    <path
       style="fill:#000000"
       inkscape:connector-curvature="0"
       id="path8"
       d="M 96.050902,6.6605797 C 95.674033,6.2756913 95.156839,6.0551824 94.619599,6.0551824 c -9.89083,0 -28.549899,4.9634566 -37.83934,14.2729446 -0.124287,0.124287 -0.196454,0.276638 -0.280648,0.424981 5.003549,1.443331 8.315193,4.321976 8.315193,7.834082 0,1.106554 -0.902082,2.004627 -2.004627,2.004627 -1.106554,0 -2.004627,-0.898073 -2.004627,-2.004627 0,-1.972553 -4.538476,-4.839169 -11.650893,-4.839169 -7.112416,0 -11.658911,2.866616 -11.658911,4.839169 0,1.106554 -0.898072,2.004627 -2.004627,2.004627 -1.102544,0 -2.004627,-0.601388 -2.004627,-1.707942 0,-3.508097 3.299616,-7.533388 8.291138,-7.533388 -0.004,0 -0.008,0 -0.01203,0 -0.08419,0 -0.16037,-0.597379 -0.288666,-0.729685 C 32.175466,11.315324 13.520407,6.2035248 3.6295774,6.2035248 c -0.5372401,0 -1.0544338,0.1403239 -1.4313037,0.5292215 C 1.8214038,7.1176347 1.6129226,7.6027544 1.6249503,8.1399945 1.7893298,16.026197 6.7688233,26.8151 10.766049,35.487117 c 0.801851,1.744025 1.575637,3.387819 2.257211,4.927373 l 0,17.813116 c 0,10.492218 6.523056,22.175184 15.884664,22.175184 0.05212,0 0.09622,-0.02405 0.152352,-0.03207 l 0,-14.922444 c 0,-1.106554 0.902082,-2.004627 2.004627,-2.004627 1.106554,0 2.004627,0.898073 2.004627,2.004627 l 0,18.687134 c 0,7.41712 8.772248,13.386899 16.037016,13.386899 7.268778,0 16.037017,-5.969779 16.037017,-13.386899 l 0,-18.687134 c 0,-1.106554 0.902082,-2.004627 2.004627,-2.004627 1.106554,0 2.004627,0.898073 2.004627,2.004627 l 0,14.9465 c 0.02406,0 0.04009,0.01604 0.06816,0.01604 9.13709,0 15.968859,-11.707022 15.968859,-22.175185 l 0,-17.813116 c 0.69761,-1.579646 1.487433,-3.287588 2.317349,-5.075715 3.993217,-8.639943 8.960683,-19.384744 9.117044,-27.2348633 0.008,-0.5452585 -0.192444,-1.0664616 -0.573324,-1.45135 z M 25.716558,42.984422 c 0,-1.61573 0.970239,-3.075098 2.461682,-3.696533 0.96623,-0.408944 2.04472,-0.613415 3.195375,-0.613415 6.061993,0 13.884047,5.821436 13.884047,12.003706 0,1.61573 -0.970239,3.075098 -2.465691,3.700542 -0.970239,0.404934 -2.044719,0.605397 -3.191366,0.605397 -6.061992,0.01203 -13.884047,-5.817428 -13.884047,-11.999697 z m 23.43409,44.618988 c -3.616347,0 -6.55914,-2.942792 -6.55914,-6.567158 0,-3.624366 2.938784,-6.567158 6.55914,-6.567158 3.612338,0 6.555131,2.942792 6.555131,6.567158 0,3.624366 -2.942793,6.567158 -6.555131,6.567158 z m 9.542025,-32.607263 c -1.150656,0 -2.221127,-0.204472 -3.191366,-0.609407 -1.495452,-0.625443 -2.461682,-2.084812 -2.461682,-3.700541 0,-6.18227 7.818045,-12.003707 13.884046,-12.003707 1.150656,0 2.225136,0.204472 3.195376,0.613416 1.491442,0.621434 2.461682,2.080803 2.461682,3.696532 0,6.174251 -7.822055,12.003707 -13.888056,12.003707 z" />
    <path
       style="fill:#000000"
       inkscape:connector-curvature="0"
       id="path10"
       d="m 56.916949,50.786305 c 0.492,0.204 1.052,0.3 1.644,0.3 4.032,0 9.856,-4.352 9.856,-7.976 -0.492,-0.204 -1.052,-0.3 -1.648,-0.3 -4.032,0.004 -9.852,4.36 -9.852,7.976 z" />
  </g>
</svg>
