<?xml version="1.0" encoding="UTF-8" standalone="no"?>
<svg
   xmlns:dc="http://purl.org/dc/elements/1.1/"
   xmlns:cc="http://creativecommons.org/ns#"
   xmlns:rdf="http://www.w3.org/1999/02/22-rdf-syntax-ns#"
   xmlns:svg="http://www.w3.org/2000/svg"
   xmlns="http://www.w3.org/2000/svg"
   xmlns:sodipodi="http://sodipodi.sourceforge.net/DTD/sodipodi-0.dtd"
   xmlns:inkscape="http://www.inkscape.org/namespaces/inkscape"
   version="1.1"
   x="0px"
   y="0px"
   viewBox="0 0 100 100"
   enable-background="new 0 0 100 100"
   xml:space="preserve"
   id="svg2"
   inkscape:version="0.91 r13725"
   sodipodi:docname="flight.svg"
   width="100"
   height="100"><metadata
     id="metadata24"><rdf:RDF><cc:Work
         rdf:about=""><dc:format>image/svg+xml</dc:format><dc:type
           rdf:resource="http://purl.org/dc/dcmitype/StillImage" /><dc:title></dc:title></cc:Work></rdf:RDF></metadata><defs
     id="defs22" /><sodipodi:namedview
     pagecolor="#ffffff"
     bordercolor="#666666"
     borderopacity="1"
     objecttolerance="10"
     gridtolerance="10"
     guidetolerance="10"
     inkscape:pageopacity="0"
     inkscape:pageshadow="2"
     inkscape:window-width="1280"
     inkscape:window-height="660"
     id="namedview20"
     showgrid="false"
     inkscape:zoom="1.888"
     inkscape:cx="-29.184322"
     inkscape:cy="62.5"
     inkscape:window-x="-8"
     inkscape:window-y="-8"
     inkscape:window-maximized="1"
     inkscape:current-layer="svg2" /><g
     id="g4152"
     transform="matrix(0.94999672,0,0,1.001114,2.5,-5.0607694)"><path
       inkscape:connector-curvature="0"
       id="path4"
       d="m 49.942,57.994 c 13.552,-0.488 27.103,-0.977 40.653,-1.465 -2.527,-4.177 -3.159,-7.831 -7.989,-8.461 -7.229,-0.94 -14.458,-1.883 -21.688,-2.826 -14.023,-1.827 -28.05,-3.654 -42.075,-5.48 1.258,2.03 20.881,18.599 31.099,18.232 z" /><path
       inkscape:connector-curvature="0"
       id="path6"
       d="m 0,14.786 c 4.391,7.257 26.615,23.072 32.953,23.886 17.33,2.231 34.657,4.46 51.986,6.688 C 81.546,39.753 80.759,36.01 74.627,34.401 65.723,32.06 56.815,29.718 47.91,27.378 31.94,23.182 15.97,18.984 0,14.786 Z" /><path
       inkscape:connector-curvature="0"
       id="path8"
       d="m 63.108,71.207 c 10.413,-2.219 20.826,-4.439 31.241,-6.66 -2.028,-3.346 -2.034,-5.359 -5.827,-5.189 -6.158,0.273 -12.314,0.549 -18.471,0.822 -11.343,0.506 -22.686,1.014 -34.028,1.518 1.275,1.366 18.917,11.249 27.085,9.509 z" /><path
       inkscape:connector-curvature="0"
       id="path10"
       d="m 87.682,95.213 c 5.725,-3.719 7.262,-7.721 10.519,-13.807 3.651,-6.824 1.257,-7.844 -2.821,-14.596 -0.417,-0.688 -5.842,0.232 -6.453,0.904 -0.745,0.818 -0.248,5.455 -0.294,6.496 -0.318,7.001 -0.635,14.003 -0.951,21.003 z" /><path
       inkscape:connector-curvature="0"
       id="path12"
       d="m 86.35,68.447 c -3.795,0.809 -8.604,0.191 -9.572,4.229 -1.373,5.736 -2.746,11.475 -4.12,17.211 9.246,-2.209 13.37,-13.305 13.692,-21.44 z" /><path
       inkscape:connector-curvature="0"
       id="path14"
       d="m 74.666,71.121 c -9.148,1.953 -8.956,4.611 -12.879,13.18 6.22,-0.59 12.024,-7.36 12.879,-13.18 z" /></g></svg>