<?xml version="1.0" encoding="UTF-8" standalone="no"?>
<svg
   xmlns:dc="http://purl.org/dc/elements/1.1/"
   xmlns:cc="http://creativecommons.org/ns#"
   xmlns:rdf="http://www.w3.org/1999/02/22-rdf-syntax-ns#"
   xmlns:svg="http://www.w3.org/2000/svg"
   xmlns="http://www.w3.org/2000/svg"
   xmlns:sodipodi="http://sodipodi.sourceforge.net/DTD/sodipodi-0.dtd"
   xmlns:inkscape="http://www.inkscape.org/namespaces/inkscape"
   version="1.1"
   x="0px"
   y="0px"
   viewBox="0 0 100 100"
   enable-background="new 0 0 100 100"
   xml:space="preserve"
   id="svg2"
   inkscape:version="0.91 r13725"
   sodipodi:docname="noun_120150_cc.svg"
   width="100"
   height="100"><metadata
     id="metadata22"><rdf:RDF><cc:Work
         rdf:about=""><dc:format>image/svg+xml</dc:format><dc:type
           rdf:resource="http://purl.org/dc/dcmitype/StillImage" /><dc:title></dc:title></cc:Work></rdf:RDF></metadata><defs
     id="defs20" /><sodipodi:namedview
     pagecolor="#ffffff"
     bordercolor="#666666"
     borderopacity="1"
     objecttolerance="10"
     gridtolerance="10"
     guidetolerance="10"
     inkscape:pageopacity="0"
     inkscape:pageshadow="2"
     inkscape:window-width="1280"
     inkscape:window-height="660"
     id="namedview18"
     showgrid="false"
     inkscape:zoom="1.888"
     inkscape:cx="50"
     inkscape:cy="62.5"
     inkscape:window-x="-8"
     inkscape:window-y="-8"
     inkscape:window-maximized="1"
     inkscape:current-layer="svg2" /><g
     display="none"
     id="g4"
     style="display:none"
     transform="translate(0,-25)"><path
       display="inline"
       d="M 95,5 95,95 5,95 5,5 95,5 m 0.25,-0.25 -0.25,0 -90,0 -0.25,0 0,0.25 0,90 0,0.25 0.25,0 90,0 0.25,0 0,-0.25 0,-90 0,-0.25 0,0 z"
       id="path6"
       inkscape:connector-curvature="0"
       style="display:inline;fill:#000000" /></g><g
     id="g8"
     transform="matrix(1.113438,0,0,1.113438,-11.070188,-4.0043484)"><g
       id="g10"><path
         d="m 92.221,63.961 c -0.228,-0.129 -0.52,-0.06 -0.664,0.162 -0.005,0.008 -0.511,0.775 -1.538,1.951 -1.532,1.738 -3.115,3.18 -4.84,4.406 -1.785,1.276 -4.641,2.94 -8.11,3.617 -1.576,0.313 -3.2,0.412 -4.846,0.287 -1.317,-0.091 -2.721,-0.365 -4.173,-0.817 -0.173,-0.052 -0.364,-0.009 -0.496,0.118 -0.132,0.128 -0.183,0.316 -0.134,0.493 0.324,1.175 0.391,2.435 0.196,3.744 -0.021,0.133 0.015,0.269 0.096,0.376 0.082,0.107 0.203,0.177 0.337,0.193 0.997,0.123 1.968,0.186 2.885,0.186 0.426,0 0.851,-0.014 1.27,-0.041 1.989,-0.115 3.938,-0.497 5.793,-1.134 3.105,-1.061 6.003,-2.84 8.61,-5.285 1.654,-1.551 3.118,-3.293 4.478,-5.33 0.915,-1.383 1.326,-2.24 1.343,-2.276 0.112,-0.237 0.021,-0.521 -0.207,-0.65 z m -28.656,6.337 c -0.173,0.053 -0.306,0.197 -0.345,0.374 -0.034,0.156 -0.618,2.365 -1.002,3.813 -0.035,0.133 -0.009,0.282 0.063,0.399 0.039,0.063 0.921,1.568 -1.618,4.308 -4.041,4.365 -11.089,6.971 -18.852,6.971 -10.764,0 -20.567,-4.434 -20.567,-9.303 0,-0.696 0.203,-1.426 0.604,-2.17 0.085,-0.158 0.079,-0.351 -0.017,-0.502 -0.895,-1.432 -1.354,-2.937 -1.363,-4.472 -0.001,-0.2 -0.122,-0.38 -0.306,-0.458 -0.184,-0.078 -0.396,-0.038 -0.541,0.101 -2.315,2.227 -3.539,4.82 -3.539,7.501 0,7.887 11.542,14.303 25.729,14.303 10.379,0 19.423,-3.556 23.041,-9.059 0.815,-1.24 1.334,-2.552 1.539,-3.896 0.073,-0.473 0.108,-0.914 0.108,-1.348 0,-2.768 -0.241,-4.306 -2.441,-6.443 -0.128,-0.128 -0.317,-0.168 -0.493,-0.119 z M 93.296,41.951 c -0.256,-0.1 -0.548,0.025 -0.648,0.283 -0.479,1.223 -1.406,2.185 -2.609,2.71 -0.306,0.133 -0.62,0.233 -0.939,0.302 l 0.311,-0.792 c 0.064,-0.164 0.021,-0.35 -0.11,-0.467 l -8.469,-7.62 c -0.103,-0.093 -0.244,-0.13 -0.379,-0.097 -0.135,0.032 -0.245,0.127 -0.296,0.256 l -1.34,3.414 c -3.879,-0.297 -7.361,0.516 -10.399,2.45 -1.287,0.819 -2.413,1.797 -3.404,2.867 -0.375,-4.138 -1.873,-8.444 -5.251,-12.292 l 2.773,-2.24 c 0.107,-0.087 0.166,-0.221 0.156,-0.359 -0.011,-0.138 -0.088,-0.262 -0.207,-0.333 L 52.67,24.25 c -0.152,-0.089 -0.344,-0.075 -0.479,0.035 l -0.657,0.531 c -0.147,-1.585 0.471,-3.214 1.799,-4.287 0.215,-0.173 0.248,-0.488 0.074,-0.703 -0.174,-0.214 -0.488,-0.249 -0.703,-0.074 -1.757,1.42 -2.485,3.646 -2.087,5.724 -0.53,-0.224 -1.083,-0.396 -1.671,-0.458 -1.574,-0.167 -3.114,0.288 -4.344,1.282 -0.214,0.173 -0.248,0.488 -0.074,0.703 0.173,0.215 0.488,0.249 0.703,0.074 1.328,-1.073 3.05,-1.336 4.569,-0.859 l -0.656,0.53 c -0.137,0.111 -0.19,0.294 -0.135,0.461 l 3.592,10.811 c 0.044,0.131 0.149,0.233 0.282,0.272 0.038,0.011 0.078,0.017 0.118,0.017 0.096,0 0.189,-0.033 0.265,-0.094 l 2.601,-2.102 c 4.266,4.738 4.688,10.17 4.021,14.445 C 55.234,46.488 44.601,35.835 43.22,22.493 l 2.6,0.869 c 0.044,0.015 0.089,0.022 0.134,0.022 0.007,-0.001 0.013,0 0.02,0 0.233,0 0.421,-0.189 0.421,-0.422 0,-0.05 -0.009,-0.099 -0.025,-0.143 L 45.963,11.563 C 45.957,11.387 45.842,11.234 45.675,11.178 L 44.874,10.91 C 46.131,9.932 47.837,9.577 49.455,10.118 49.718,10.205 50,10.064 50.088,9.803 50.175,9.541 50.034,9.258 49.773,9.17 47.639,8.455 45.382,9.031 43.846,10.47 43.484,8.397 42.026,6.58 39.894,5.867 c -0.26,-0.086 -0.545,0.054 -0.633,0.315 -0.088,0.262 0.054,0.545 0.315,0.633 1.62,0.542 2.769,1.851 3.185,3.388 L 41.96,9.935 C 41.793,9.879 41.609,9.932 41.499,10.069 l -7.175,8.848 c -0.087,0.107 -0.116,0.251 -0.077,0.383 0.039,0.133 0.14,0.238 0.271,0.282 l 3.961,1.324 c 0.458,11.933 7.379,21.837 13.13,28.063 -4.511,-1.694 -9.018,-1.943 -11.021,-1.96 l 0,-3.971 c 0,-0.138 -0.068,-0.268 -0.182,-0.347 -0.114,-0.078 -0.259,-0.096 -0.388,-0.048 l -10.667,4 c -0.165,0.062 -0.274,0.219 -0.274,0.395 l 0,0.844 C 27.751,47 26.874,45.496 26.874,43.788 c 0,-0.276 -0.224,-0.5 -0.5,-0.5 -0.276,0 -0.5,0.224 -0.5,0.5 0,2.249 1.261,4.208 3.113,5.208 -1.852,1.001 -3.113,2.96 -3.113,5.208 0,0.276 0.224,0.5 0.5,0.5 0.276,0 0.5,-0.224 0.5,-0.5 0,-1.708 0.877,-3.212 2.203,-4.094 l 0,0.844 c 0,0.175 0.109,0.333 0.274,0.395 l 10.667,3.999 c 0.048,0.019 0.098,0.027 0.148,0.027 0.084,0 0.168,-0.025 0.24,-0.075 0.114,-0.079 0.182,-0.208 0.182,-0.347 l 0,-2.974 c 0.169,-0.004 0.357,-0.006 0.566,-0.006 3.102,0 10.714,0.516 14.395,5.284 4.872,6.313 2.555,13.591 -0.646,16.741 -2.559,2.517 -7.598,4.08 -13.152,4.08 -7.316,0 -13.867,-2.992 -15.238,-6.959 -0.176,-0.511 -0.262,-0.987 -0.262,-1.458 0,-1.131 0.458,-2.254 1.363,-3.338 2.576,-3.085 8.125,-5.078 14.137,-5.078 6.607,0 12.903,2.386 14.971,5.673 0.107,0.172 0.307,0.261 0.513,0.226 0.201,-0.037 0.359,-0.192 0.4,-0.394 0.026,-0.131 0.627,-3.241 -1.221,-5.953 -0.021,-0.031 -0.046,-0.061 -0.074,-0.086 -3.575,-3.297 -7.393,-4.466 -14.589,-4.466 -11.495,0 -20.5,5.893 -20.496,13.472 0.011,1.722 0.5,3.399 1.455,4.988 3.06,5.086 10.533,8.373 19.041,8.373 6.592,0 12.584,-1.939 16.44,-5.32 1.052,-0.923 2.957,-3.563 3.109,-3.979 0.671,-1.831 2.111,-6.464 1.622,-11.317 0.084,-0.208 0.15,-0.426 0.176,-0.659 0.012,-0.108 1.264,-10.907 8.005,-15.199 1.682,-1.071 3.612,-1.634 5.767,-1.705 l -1.066,2.717 c -0.051,0.128 -0.034,0.274 0.042,0.389 0.077,0.115 0.206,0.185 0.344,0.187 l 11.391,0.172 c 0.003,0 0.005,0 0.007,0 0.173,0 0.329,-0.106 0.393,-0.268 l 0.311,-0.792 c 0.187,0.267 0.349,0.554 0.482,0.859 0.525,1.204 0.551,2.54 0.07,3.762 -0.101,0.257 0.026,0.547 0.283,0.648 0.06,0.023 0.122,0.034 0.183,0.034 0.199,0 0.388,-0.12 0.466,-0.317 0.577,-1.471 0.547,-3.079 -0.085,-4.527 -0.236,-0.541 -0.566,-1.016 -0.938,-1.454 0.574,-0.067 1.142,-0.216 1.687,-0.454 1.448,-0.632 2.563,-1.791 3.141,-3.262 0.099,-0.251 -0.028,-0.541 -0.285,-0.642 z M 54.563,65.855 C 54.516,65.798 54.458,65.753 54.39,65.722 54.138,65.604 53.881,65.49 53.619,65.379 50.181,63.922 46.082,63.151 41.763,63.151 c -1.973,0 -3.922,0.163 -5.792,0.485 -2.501,0.431 -4.8,1.132 -6.835,2.085 -0.066,0.031 -0.125,0.076 -0.171,0.133 -0.917,1.097 -1.381,2.258 -1.381,3.449 0,0.5 0.092,1.021 0.274,1.549 0.052,0.149 0.171,0.266 0.321,0.313 0.05,0.016 0.101,0.023 0.151,0.023 0.104,0 0.206,-0.032 0.292,-0.095 1.956,-1.408 4.785,-2.497 7.964,-3.064 6.734,-1.204 14.106,0.099 18.217,2.997 0.133,0.095 0.306,0.117 0.457,0.063 0.153,-0.056 0.271,-0.182 0.313,-0.339 0.13,-0.477 0.472,-2.008 0.531,-2.338 0.022,-0.124 -0.003,-0.252 -0.071,-0.358 l -0.126,-0.197 c -0.509,-0.803 -1.067,-1.67 -1.344,-2.002 z"
         id="path12"
         inkscape:connector-curvature="0" /></g></g></svg>