<?xml version="1.0" encoding="UTF-8" standalone="no"?>
<svg
   xmlns:dc="http://purl.org/dc/elements/1.1/"
   xmlns:cc="http://creativecommons.org/ns#"
   xmlns:rdf="http://www.w3.org/1999/02/22-rdf-syntax-ns#"
   xmlns:svg="http://www.w3.org/2000/svg"
   xmlns="http://www.w3.org/2000/svg"
   xmlns:sodipodi="http://sodipodi.sourceforge.net/DTD/sodipodi-0.dtd"
   xmlns:inkscape="http://www.inkscape.org/namespaces/inkscape"
   version="1.0"
   x="0px"
   y="0px"
   viewBox="0 0 100 100"
   enable-background="new 0 0 24 24"
   xml:space="preserve"
   id="svg2"
   inkscape:version="0.91 r13725"
   sodipodi:docname="strength.svg"
   width="100"
   height="100"><metadata
     id="metadata10"><rdf:RDF><cc:Work
         rdf:about=""><dc:format>image/svg+xml</dc:format><dc:type
           rdf:resource="http://purl.org/dc/dcmitype/StillImage" /><dc:title></dc:title></cc:Work></rdf:RDF></metadata><defs
     id="defs8" /><sodipodi:namedview
     pagecolor="#ffffff"
     bordercolor="#666666"
     borderopacity="1"
     objecttolerance="10"
     gridtolerance="10"
     guidetolerance="10"
     inkscape:pageopacity="0"
     inkscape:pageshadow="2"
     inkscape:window-width="1280"
     inkscape:window-height="660"
     id="namedview6"
     showgrid="false"
     inkscape:zoom="3.4766083"
     inkscape:cx="55.134728"
     inkscape:cy="53.471084"
     inkscape:window-x="-8"
     inkscape:window-y="-8"
     inkscape:window-maximized="1"
     inkscape:current-layer="svg2" /><path
     d="m 59.06032,44.341836 c -3.796512,-8.542151 2.37282,-20.880814 20.40625,-20.880814 12.813227,0 18.03343,9.965843 18.03343,19.457122 0,14.236919 -15.186046,19.931686 -15.186046,19.931686 0,0 -7.593024,25.15189 -30.846657,25.15189 -8.067588,0 -12.813227,-0.949128 -16.135175,-1.423692 -3.321948,0 -6.169331,1.423692 -8.067587,1.423692 -1.898256,0 -13.762355,-8.067587 -17.5588667,-18.507994 C 3.5363369,54.307679 3.0617729,42.44358 2.587209,36.274249 2.112645,27.732098 3.5363369,22.03733 7.8074125,18.240818 c 2.8473835,-2.372819 6.1693315,-5.694767 9.9658435,-6.169331 4.271075,-0.474564 6.169331,1.423692 9.016715,3.796512 2.37282,1.898256 4.74564,4.745639 6.169331,6.643895 0.474564,0.949128 0.474564,2.37282 -0.474564,2.847384 -6.643895,6.169331 -11.864098,6.169331 -13.28779,5.220203 -2.37282,-2.372819 -4.74564,-0.949128 -3.796512,1.423692 0.949128,1.898256 2.37282,9.016715 8.067587,14.236919 6.643896,5.694767 8.542151,10.914971 10.440407,15.186046 0.949128,-4.271075 4.271076,-19.931686 25.15189,-17.084302 z"
     id="path4"
     inkscape:connector-curvature="0" /></svg>