<?xml version="1.0" encoding="UTF-8" standalone="no"?>
<svg
   xmlns:dc="http://purl.org/dc/elements/1.1/"
   xmlns:cc="http://creativecommons.org/ns#"
   xmlns:rdf="http://www.w3.org/1999/02/22-rdf-syntax-ns#"
   xmlns:svg="http://www.w3.org/2000/svg"
   xmlns="http://www.w3.org/2000/svg"
   xmlns:sodipodi="http://sodipodi.sourceforge.net/DTD/sodipodi-0.dtd"
   xmlns:inkscape="http://www.inkscape.org/namespaces/inkscape"
   version="1.1"
   x="0px"
   y="0px"
   viewBox="0 0 100 100"
   enable-background="new 0 0 100 100"
   xml:space="preserve"
   id="svg2"
   inkscape:version="0.91 r13725"
   sodipodi:docname="wisdom.svg"
   width="100"
   height="100"><metadata
     id="metadata14"><rdf:RDF><cc:Work
         rdf:about=""><dc:format>image/svg+xml</dc:format><dc:type
           rdf:resource="http://purl.org/dc/dcmitype/StillImage" /><dc:title></dc:title></cc:Work></rdf:RDF></metadata><defs
     id="defs12" /><sodipodi:namedview
     pagecolor="#ffffff"
     bordercolor="#666666"
     borderopacity="1"
     objecttolerance="10"
     gridtolerance="10"
     guidetolerance="10"
     inkscape:pageopacity="0"
     inkscape:pageshadow="2"
     inkscape:window-width="1280"
     inkscape:window-height="660"
     id="namedview10"
     showgrid="false"
     inkscape:zoom="1.888"
     inkscape:cx="-29.184322"
     inkscape:cy="62.5"
     inkscape:window-x="-8"
     inkscape:window-y="-8"
     inkscape:window-maximized="1"
     inkscape:current-layer="svg2" /><path
     d="M 78.904256,2.5 67.787234,6.9468085 C 66.372341,8.462766 64.957447,9.8776591 63.643618,11.090425 59.702128,8.462766 55.053192,6.9468085 50,6.9468085 c -5.053191,0 -9.803191,1.5159575 -13.643617,4.1436165 C 35.042554,9.8776591 33.627659,8.462766 32.212766,6.9468085 L 21.095745,2.5 c 0,3.8404256 1.617021,7.4787229 4.547871,9.904255 l 4.143617,4.75 c -2.829787,4.042553 -3.739361,8.893617 -3.739361,14.148936 0,0.505319 0,56.696808 0,56.696808 5.053192,-1.515958 12.026595,-8.085106 10.308511,-36.484042 0,0 6.87234,32.441489 -10.30851,40.021276 l 0,5.962767 0,0 c 0,0 22.436169,-4.345745 31.026596,-11.62234 1.819149,3.941489 2.021276,8.085106 0.303191,10.30851 0.606383,-0.101064 1.212766,-0.202127 1.718085,-0.505319 3.132979,-1.718085 3.43617,-7.074468 0.808511,-12.12766 0.707447,-0.707446 1.414893,-1.414894 2.12234,-2.12234 2.223405,4.143617 2.324468,8.590426 0.505319,10.914894 0.606383,-0.101064 1.212766,-0.202128 1.718086,-0.505319 3.132978,-1.718086 3.43617,-7.276596 0.606383,-12.430852 -0.202128,-0.303191 -0.303193,-0.606383 -0.50532,-0.909574 0.606383,-0.808511 1.212766,-1.718085 1.819149,-2.526596 0.303191,0.404255 0.505319,0.808511 0.707447,1.212766 2.324468,4.244681 2.526596,8.792553 0.707447,11.218085 0.606383,-0.101064 1.212766,-0.202128 1.718085,-0.505319 3.132979,-1.718086 3.43617,-7.276597 0.606383,-12.430851 -0.505319,-1.010638 -1.718085,-1.920212 -2.324468,-2.627659 5.457447,-10.409574 6.87234,-32.037234 6.87234,-40.829787 0,0 0,-0.101064 0,-0.606383 0,-5.255319 -1.617021,-10.106383 -4.446809,-14.148936 l 4.345745,-4.851064 C 77.186171,9.9787239 78.904256,6.3404256 78.904256,2.5 Z M 62.632978,27.867021 c 1.313831,0 2.324469,1.010638 2.324469,2.324468 0,1.31383 -1.010638,2.324468 -2.324469,2.324468 -1.31383,0 -2.324468,-1.010638 -2.324468,-2.324468 0,-1.31383 1.010638,-2.324468 2.324468,-2.324468 z m -22.739362,2.324468 c 0,1.31383 -1.010638,2.324468 -2.324468,2.324468 -1.313829,0 -2.324468,-1.010638 -2.324468,-2.324468 0,-1.31383 1.010639,-2.324468 2.324468,-2.324468 1.212766,0 2.324468,1.010638 2.324468,2.324468 z m -2.324468,8.893618 c -4.851064,0 -8.792553,-3.941489 -8.792553,-8.792553 0,-3.739362 2.324468,-6.973405 5.659576,-8.287234 l 2.829787,3.031915 c -2.728724,0.202127 -4.851064,2.425532 -4.851064,5.154255 0,2.829787 2.324468,5.154255 5.154255,5.154255 2.62766,0 4.75,-1.920212 5.154255,-4.446808 l 2.829788,3.031915 c -1.515958,3.132978 -4.547872,5.154255 -7.984043,5.154255 z m 9.601064,-3.234043 2.930851,3.234043 2.728724,-3.031915 -0.101064,5.659575 -2.930851,4.952127 -2.62766,-4.952127 0,-5.861702 z m 24.154256,-5.558511 c 0,4.851064 -3.94149,8.792554 -8.792554,8.792554 -3.43617,0 -6.468085,-2.021277 -7.882978,-4.952128 l 2.930851,-3.234043 c 0.303191,2.526596 2.526596,4.547872 5.154255,4.547872 2.829787,0 5.154255,-2.324467 5.154255,-5.154255 0,-2.829787 -2.223404,-5.053192 -4.952127,-5.154256 l 2.829787,-3.031914 c 3.234043,1.212766 5.558511,4.345744 5.558511,8.18617 z"
     id="path4"
     inkscape:connector-curvature="0" /></svg>